<svg width="74" height="101" viewBox="0 0 74 101" fill="none" xmlns="http://www.w3.org/2000/svg">
<path d="M23.8378 1.00695C23.4472 1.61282 22.8027 4.11451 22.6464 5.59989C22.4121 7.94522 23.2128 11.5414 24.4433 13.6522C25.9277 16.2321 28.2519 18.4015 30.83 19.6133C32.3144 20.3168 34.3847 20.9032 35.4003 20.9032H36.0253V26.1215V31.3595L33.916 29.2487C32.2558 27.6069 31.7089 27.1574 31.2793 27.1574C30.7128 27.1574 30.3222 27.7437 30.5175 28.3301C30.5566 28.4864 31.9433 29.9718 33.5644 31.594C35.8105 33.8807 36.6308 34.5843 37.0019 34.5843C37.373 34.5843 38.1933 33.8807 40.4394 31.594C42.0605 29.9718 43.4472 28.4864 43.4863 28.3301C43.7011 27.7242 43.291 27.1574 42.6855 27.1574C42.373 27.1574 42.0605 27.2356 42.0019 27.3333C41.9433 27.4115 41.0058 28.3105 39.9316 29.3073L37.9785 31.1054V26.0434V20.9618L39.1308 20.8446C43.3105 20.395 47.8417 17.0725 49.7949 13.0072C50.9667 10.5642 51.3378 8.727 51.2011 5.99078C51.0839 3.35228 50.4589 1.04604 49.7949 0.733322C49.4628 0.576969 48.8769 0.694237 47.2363 1.22194C43.4082 2.47278 41.123 2.80503 36.9042 2.80503C33.6621 2.80503 32.8808 2.72686 30.7519 2.27734C29.4043 2.00371 27.5293 1.49556 26.5722 1.1633C24.4824 0.459702 24.2089 0.440159 23.8378 1.00695ZM27.2363 3.41091C30.6152 4.40768 33.0957 4.75948 37.0019 4.75948C40.9082 4.75948 43.3691 4.42722 46.8261 3.41091C47.7636 3.13729 48.6035 2.9223 48.7011 2.9223C49.2871 2.9223 49.5019 7.71069 49.0136 9.66513C47.9394 13.8476 44.5019 17.4047 40.2246 18.6751C38.3496 19.2419 35.166 19.1637 33.2324 18.4992C29.1894 17.092 26.0253 13.7108 24.9902 9.66513C24.4628 7.61297 24.7168 2.9223 25.3418 2.9223C25.4785 2.9223 26.3183 3.15683 27.2363 3.41091Z" fill="#B58F4F"/>
<path d="M11.5136 26.1216C5.84953 26.9033 1.94328 30.949 0.771401 37.2228C0.302651 39.7245 0.43937 45.5292 1.04484 48.5586C1.90421 52.7802 3.32999 56.5132 5.55656 60.2852C6.18156 61.3602 6.98234 62.9237 7.31437 63.7641C9.09171 68.318 10.0487 74.8067 10.0487 82.5268C10.0487 86.7289 10.2636 88.9569 10.9277 91.5759C12.5097 97.8496 16.8066 101.231 22.2362 100.488C25.4784 100.058 27.6855 98.7682 29.3066 96.3056C31.1425 93.5694 31.8456 90.5009 32.1191 83.8363C32.3925 77.5625 33.0761 74.2009 34.5409 71.9923C36.5917 68.8457 39.0527 69.862 40.6152 74.4549C41.3964 76.7221 41.6894 78.9306 41.8847 83.7386C42.1581 90.5009 42.8417 93.5499 44.6972 96.3056C46.3378 98.7682 48.5253 100.058 51.8066 100.508C57.0019 101.192 60.9862 98.2992 62.7636 92.5531C63.5253 90.071 63.7792 87.8429 63.955 81.7841C64.1698 74.5918 64.4237 72.2269 65.4394 67.8685C66.0644 65.1518 67.0605 62.6306 68.4472 60.2852C70.5956 56.6304 71.9433 53.1711 72.8612 48.8908C73.5253 45.8028 73.7206 40.604 73.2519 37.985C72.1972 31.8481 68.7206 27.5288 63.8573 26.2779C61.5331 25.6916 57.9394 25.9652 55.0683 26.962C52.7441 27.7633 48.6816 29.6005 48.5058 29.9327C48.3691 30.1673 48.4472 30.6559 48.7402 31.4963C49.287 33.0207 49.4628 36.2065 49.1112 37.9655C48.4081 41.5617 45.7323 44.9624 42.3339 46.6237C36.2206 49.5944 29.0136 47.0732 25.8886 40.8971C24.5995 38.3368 24.3066 34.7797 25.1464 31.8872C25.4003 31.0077 25.537 30.1673 25.4589 29.9718C25.3222 29.5614 20.7519 27.5092 18.4277 26.8056C16.2402 26.1216 13.4472 25.8479 11.5136 26.1216ZM64.0527 28.3692C67.412 29.4637 69.8534 32.4539 71.0058 36.8319C71.5331 38.8645 71.7089 42.9493 71.3964 45.7246C70.8495 50.3371 69.2089 55.2428 66.9823 58.9171C65.7519 60.9302 65.1073 62.3374 64.3456 64.6827C62.8222 69.2952 62.2558 73.595 62.0019 81.8818C61.787 89.4064 61.4355 91.4586 59.8925 94.4489C59.0331 96.1102 57.5292 97.5369 55.9862 98.1233C54.6581 98.6314 52.0995 98.7291 50.5175 98.3187C48.9745 97.9278 47.3144 96.7356 46.3964 95.3479C44.7167 92.8463 44.0917 90.0123 43.8378 83.6408C43.5253 76.0771 42.6073 72.5005 40.3417 69.9206C37.2948 66.4808 33.2323 68.3962 31.4355 74.1227C30.6737 76.4876 30.3808 78.8524 30.1659 83.6799C30.0487 86.7679 29.8534 88.7224 29.58 90.1296C28.4472 95.6607 26.123 98.1623 21.6894 98.6119C18.2909 98.9637 15.4198 97.2438 13.8378 93.9017C12.4902 91.1068 12.0019 87.9211 12.0019 82.2141C12.0019 73.4191 10.7128 66.0704 8.32999 61.2625C8.07609 60.7152 7.45109 59.6207 6.96281 58.8389C4.89249 55.3796 3.40812 51.0993 2.72453 46.5846C2.3339 44.0243 2.3339 39.1577 2.72453 37.2814C3.77921 32.239 6.57218 29.1509 10.9277 28.2324C13.33 27.7242 15.6933 27.9392 18.5058 28.9164C20.0097 29.4441 23.0566 30.7145 23.2519 30.9099C23.2909 30.9686 23.1933 31.5745 23.0175 32.2585C22.5878 33.9002 22.5878 37.0078 23.0175 38.7864C24.2089 43.7506 27.998 47.6986 33.0956 49.2622C34.9902 49.8485 38.5644 49.9071 40.5175 49.3794C45.6152 48.0113 49.58 44.0047 50.8691 38.9622C51.3378 37.1251 51.3769 34.0566 50.9667 32.2585C50.7909 31.5745 50.6933 30.9881 50.7128 30.949C50.9472 30.7145 55.3612 28.8773 56.4941 28.5255C59.0917 27.7437 61.9433 27.6851 64.0527 28.3692Z" fill="#B58F4F"/>
</svg>
