<svg width="94" height="101" viewBox="0 0 94 101" fill="none" xmlns="http://www.w3.org/2000/svg">
<path fill-rule="evenodd" clip-rule="evenodd" d="M37.351 0.849735C34.5383 1.7247 34.4148 2.20977 34.4148 12.3983V20.8962L34.858 21.2064C35.1017 21.3771 35.6294 21.517 36.0305 21.517H36.7603L36.288 23.4606C35.1471 28.1567 34.8856 27.8959 40.7383 27.8959C46.6357 27.8959 46.4691 28.035 45.4786 23.9462C44.8547 21.371 44.8383 21.517 45.7467 21.5167C47.1277 21.5167 47.2578 21.1832 47.3727 17.3468L47.4722 14.0146L57.7388 17.0633L68.0052 20.1118L77.8919 20.1166C88.7245 20.122 88.4384 20.1534 88.4384 18.9594C88.4384 18.5463 88.5227 18.5267 90.2943 18.5267C92.9391 18.5267 92.9087 18.5621 92.9886 15.3994C93.0771 11.8931 92.9715 11.7487 90.3177 11.7487H88.4384V11.0819C88.4384 9.71883 88.6969 9.75531 79.0024 9.75531H70.2951L58.6217 6.83646L46.9481 3.91786L46.6385 3.1442C46.2604 2.1988 45.0519 1.12812 44.0119 0.816563C43.0216 0.519804 38.3362 0.543279 37.351 0.849735ZM43.857 3.58997C44.1966 3.85688 44.426 4.27637 44.5059 4.77675C44.6903 5.93036 44.8886 6.02018 49.9641 7.25315C52.5406 7.87907 54.7975 8.43227 54.9792 8.4828C55.3272 8.57925 55.3635 8.41543 54.0756 12.5721L53.8513 13.2955L50.2632 12.2271C44.5926 10.5387 44.7809 10.4307 44.7809 15.368V18.9252H40.7939H36.807V11.8385C36.807 2.66678 36.5697 3.19242 40.7174 3.18273C43.0657 3.17737 43.3852 3.2187 43.857 3.58997ZM59.7516 9.65759L61.266 10.013L60.5148 12.3937C60.1017 13.703 59.7194 14.8181 59.6656 14.8722C59.5143 15.0232 56.3433 14.0689 56.3433 13.8722C56.3433 13.2452 57.8067 9.14036 58.0037 9.21461C58.132 9.26284 58.9187 9.46213 59.7516 9.65759ZM66.9087 11.4496C68.6735 11.8941 70.1535 12.1475 70.9853 12.1475H72.2912V14.9383V17.7293L70.5469 17.728C69.0072 17.727 62.722 16.2006 62.2295 15.7078C62.044 15.5226 63.6311 10.7556 63.8789 10.7538C64.0215 10.7528 65.3849 11.0659 66.9087 11.4496ZM78.4711 14.9383V17.7293H76.6768H74.8827V14.9383V12.1475H76.6768H78.4711V14.9383ZM86.0463 14.9383V17.7293H83.4548H80.8633V14.9383V12.1475H83.4548H86.0463V14.9383ZM90.4321 15.2373V16.1345H89.4351H88.4384V15.2373V14.3404H89.4351H90.4321V15.2373ZM9.62506 17.5836C9.43496 17.7226 8.66844 18.9561 7.92208 20.3246L6.56484 22.8127L3.99378 24.2416C0.00782144 26.4568 0.000931561 26.8803 3.9157 28.9982L6.48472 30.3879L7.9407 33.0373C10.0872 36.9433 10.5335 36.9431 12.6605 33.0342L14.1004 30.3879L16.7049 28.9923C20.6067 26.902 20.5965 26.4662 16.5934 24.2416L14.0224 22.8127L12.6651 20.3246C11.3125 17.8446 10.9052 17.3305 10.2936 17.3305C10.1163 17.3305 9.81542 17.4443 9.62506 17.5836ZM13.9667 25.6951L15.7154 26.6466L13.9522 27.6244C12.2127 28.5892 12.1765 28.6249 11.2964 30.2427C10.8057 31.1449 10.3543 31.8831 10.2936 31.8831C10.2329 31.8831 9.78148 31.1449 9.29079 30.2427C8.41072 28.6249 8.37449 28.5892 6.63501 27.6244L4.87181 26.6466L6.60618 25.7027C8.22419 24.8227 8.38801 24.6736 9.04354 23.4869C10.4299 20.9768 10.2025 21.0255 11.2762 23.0064C12.2178 24.7431 12.2188 24.7441 13.9667 25.6951ZM42.7697 23.3261C42.9988 24.321 43.1861 25.2182 43.1861 25.3195C43.1861 25.4221 42.1257 25.504 40.7939 25.504C39.4783 25.504 38.4018 25.4514 38.4018 25.3876C38.4018 25.249 39.177 22.1248 39.3005 21.766C39.3586 21.5966 39.8613 21.517 40.8695 21.517H42.353L42.7697 23.3261ZM25.1147 29.4738C17.5944 31.519 13.7708 38.8124 15.7519 47.3325C23.3852 80.1589 29.5635 97.8997 34.1058 100.035C36.7633 101.284 40.1147 100.357 41.7276 97.9267C42.19 97.2301 43.293 94.1025 45.7919 86.4049C49.4352 75.1819 49.3737 75.3411 50.0636 75.3411C50.7878 75.3411 50.8205 75.4248 54.378 86.334C58.1177 97.8022 58.1422 97.8639 59.3446 98.9502C61.5911 100.98 64.8141 101.163 67.1233 99.3934C70.9687 96.4457 77.5181 77.0918 83.7628 50.2233C85.8789 41.1179 85.2509 37.2235 80.9815 32.9788C75.5135 27.5425 69.5561 27.7933 56.7419 33.9992C50.2887 37.1243 49.8442 37.1311 43.884 34.1916C34.9391 29.7803 29.2479 28.3498 25.1147 29.4738ZM32.0838 32.1684C34.9182 32.889 37.5105 33.9219 42.3887 36.2743C49.44 39.6747 50.8559 39.7145 56.9105 36.6828C64.8473 32.7086 70.0506 31.1217 73.356 31.6675C79.3969 32.665 83.5176 38.7413 82.365 44.9523C80.3216 55.9637 73.7947 79.2906 70.1524 88.5978C67.5319 95.2952 65.8549 97.8359 63.9332 98.0204C61.2239 98.2809 60.6814 97.5628 58.4706 90.7907C54.24 77.8303 53.1481 74.6315 52.7927 74.1543C51.4056 72.2932 48.0802 72.5404 47.1213 74.5759C46.9488 74.9418 45.3122 79.8165 43.4842 85.4082C39.8764 96.445 39.699 96.8775 38.4862 97.5881C35.0182 99.6202 32.6615 96.4396 28.3117 83.8573C24.031 71.4746 17.6695 46.9438 17.6695 42.8196C17.6695 34.9403 24.1504 30.1513 32.0838 32.1684ZM27.9524 37.3154C27.7922 37.5619 27.2178 38.5672 26.6763 39.5491L25.6919 41.3343L23.5248 42.5394C20.3747 44.2911 20.3622 44.9548 23.448 46.6188C25.7695 47.8706 25.6194 47.7213 26.9274 50.0855C28.635 53.172 29.3012 53.1322 31.0581 49.8382L32.1208 47.8454L34.1364 46.7466C37.548 44.8869 37.574 44.3314 34.3329 42.5486L32.1576 41.3521L31.0211 39.2876C30.3959 38.1521 29.76 37.1442 29.6079 37.048C29.0828 36.7155 28.2558 36.8489 27.9524 37.3154ZM31.4645 43.8492C32.8817 44.6045 32.8817 44.6042 31.4906 45.3312C30.8429 45.6695 30.2267 46.1635 30.0458 46.4891C29.872 46.8017 29.5406 47.3789 29.3089 47.7721L28.8876 48.4874L28.23 47.2539C27.6587 46.1817 27.4038 45.926 26.2811 45.298L24.9897 44.5759L26.094 44.0173C27.2872 43.4141 27.6891 42.9974 28.4365 41.5884L28.9198 40.6772L29.6141 41.9551C30.2104 43.0531 30.4709 43.3197 31.4645 43.8492Z" fill="#B58F4F"/>
</svg>
