<svg width="126" height="101" viewBox="0 0 126 101" fill="none" xmlns="http://www.w3.org/2000/svg">
<path d="M45.8721 2.85071C41.0375 6.78176 40.3842 10.8484 43.1282 20.066C44.9575 26.437 46.2641 28.4703 49.2694 29.9614C54.8881 32.8081 65.9946 33.4858 72.9199 31.4525C78.2772 29.8259 79.3225 28.877 81.6745 23.4549C85.5945 14.1017 85.3331 7.45953 80.7598 3.39292C77.6239 0.681852 76.0559 0.139637 72.2666 0.952959C65.7333 2.17294 59.2 2.17294 53.8427 1.08851C50.1841 0.275192 48.6161 0.546299 45.8721 2.85071ZM60.376 5.69733C63.2507 7.18843 66.9093 8.40841 68.4773 8.27285C71.2213 8.1373 71.2213 8.00175 67.6933 6.51066L64.0347 4.74846L67.04 3.93514C73.4426 2.17294 78.4079 2.85071 80.4985 5.96844C83.1118 9.76394 83.1118 13.1528 80.4985 21.0149C78.7999 26.3015 77.7545 27.5215 73.7039 28.877C67.6933 30.9103 58.2854 30.9103 52.1441 28.877C48.2241 27.5215 47.1788 26.1659 45.4801 21.0149C42.8668 13.1528 42.8668 9.76394 45.4801 5.96844C47.9628 2.17294 53.4507 2.03739 60.376 5.69733Z" fill="#B58F4F"/>
<path d="M5.88838 34.1636C0.139096 36.6036 -1.29823 44.3302 2.22974 54.4967C3.27507 57.6144 4.18973 63.5788 4.18973 67.6454C4.18973 77.9474 9.54702 88.3851 15.035 88.3851C17.387 88.3851 17.5176 87.7073 16.7336 81.6074C15.819 74.1519 18.4323 65.341 21.5683 65.341C24.5736 65.341 26.7949 72.7964 26.1415 80.3874C25.3576 88.7917 27.4482 90.4184 32.8055 85.1318C36.9868 80.9296 39.4694 73.6097 39.4694 65.6121C39.4694 62.6299 39.9921 59.7833 40.6454 59.3766C42.4747 58.1566 49.9227 61.4099 49.9227 63.3077C49.9227 64.2565 50.4453 65.341 51.2293 65.6121C51.8827 65.7476 53.32 72.3897 54.496 80.2519C57.6319 102.076 57.1093 100.585 62.8586 100.585C68.7385 100.585 68.2159 101.805 71.4825 79.5741C72.5278 72.1186 73.9651 65.8832 74.7491 65.6121C75.4025 65.341 76.0558 64.2565 76.0558 63.3077C76.0558 61.4099 83.5037 58.1566 85.333 59.3766C85.9864 59.7833 86.509 62.6299 86.509 65.6121C86.509 73.6097 88.9917 80.9296 93.173 85.1318C98.5303 90.4184 100.621 88.7917 99.8369 80.3874C99.1836 72.7964 101.405 65.341 104.41 65.341C107.546 65.341 110.16 74.1519 109.245 81.6074C108.461 87.7073 108.592 88.3851 110.943 88.3851C116.431 88.3851 121.789 77.9474 121.789 67.6454C121.789 63.5788 122.703 57.6144 123.749 54.4967C128.191 41.4835 124.794 33.2148 115.386 33.8925C105.848 34.5703 99.0529 34.4347 94.741 33.4859C91.0823 32.6725 89.9063 33.0792 86.3784 36.7392C82.1971 41.2124 81.8051 44.4657 84.5491 53.9545C85.333 56.3944 84.6797 56.9366 81.2824 57.75C76.1865 58.6988 74.2265 56.8011 72.9198 49.7523C71.2212 40.6702 70.1758 39.5858 62.9892 39.5858C55.8026 39.5858 54.7573 40.6702 53.0587 49.7523C51.752 56.8011 49.792 58.6988 44.6961 57.75C41.2988 56.9366 40.6454 56.3944 41.4294 53.9545C44.1734 44.3302 43.7814 41.2124 39.6001 36.7392C35.8108 32.9436 34.8961 32.537 30.5842 33.4859C24.5736 34.8414 17.7789 34.977 12.683 33.757C10.5923 33.2148 7.45637 33.4859 5.88838 34.1636ZM18.5629 38.2302C21.4376 39.7213 25.3576 40.9413 27.3175 40.8058C29.2775 40.8058 30.0615 40.3991 29.0162 39.9924C23.0056 37.9591 23.0056 37.9591 25.7495 36.8747C37.5094 31.8592 44.1734 40.6702 38.8161 54.09C37.7708 56.6655 36.8561 62.4943 36.8561 66.9676C36.8561 75.5075 35.0268 80.6585 30.3228 84.9962L27.4482 87.7073L28.3629 81.3363C30.1922 69.0009 24.5736 60.0544 18.3016 65.2054C15.6883 67.5098 15.2963 69.0009 15.2963 76.7275C15.2963 87.0295 13.7283 88.114 9.28569 80.7941C7.19504 77.2697 6.28038 73.2031 5.88838 66.9676C5.75772 61.9521 4.58173 55.1744 3.5364 51.65C-0.906229 37.9591 6.14971 31.7237 18.5629 38.2302ZM101.797 38.2302C104.541 39.7213 108.2 40.9413 110.029 40.9413C113.165 40.8058 113.165 40.8058 109.376 39.0436L105.456 37.2814L110.29 36.1969C121.789 33.8925 126.101 39.3147 122.573 51.2434C121.397 55.0389 120.221 62.2232 119.959 67.1032C119.698 73.2031 118.653 77.2697 116.693 80.7941C112.25 88.114 110.682 87.0295 110.682 76.7275C110.682 69.0009 110.29 67.5098 107.677 65.2054C101.405 60.0544 95.7863 69.0009 97.6156 81.3363L98.5303 87.7073L95.6556 84.9962C90.9517 80.6585 89.1224 75.5075 89.1224 66.9676C89.1224 62.4943 88.2077 56.6655 87.1624 54.09C81.2824 39.4502 89.1224 31.1815 101.797 38.2302ZM70.0452 47.1768C70.5678 49.7523 71.3518 52.87 71.7438 53.9545C72.2665 55.4455 70.5678 55.8522 62.9892 55.8522C54.7573 55.8522 53.712 55.5811 54.3653 53.4122C54.6266 52.1923 55.28 49.0745 55.8026 46.6346C56.5866 42.4324 56.848 42.2968 62.9892 42.2968C69.1305 42.2968 69.2612 42.4324 70.0452 47.1768ZM74.4878 60.7321C73.8345 63.9854 52.144 63.9854 51.4907 60.7321C51.0987 58.8344 52.7973 58.5633 62.9892 58.5633C73.1812 58.5633 74.8798 58.8344 74.4878 60.7321ZM58.4159 66.6965C58.0239 67.3743 57.1093 68.052 56.3253 68.052C55.672 68.052 55.1493 67.3743 55.1493 66.6965C55.1493 65.8832 56.064 65.341 57.24 65.341C58.2853 65.341 58.8079 65.8832 58.4159 66.6965ZM70.8292 66.6965C70.8292 67.3743 68.7385 69.0009 65.9945 70.0853C60.6373 72.3897 60.7679 74.2875 66.2559 72.1186C70.0452 70.6276 71.6132 71.0342 70.3065 73.2031C69.3918 74.8297 57.6319 79.1674 56.7173 78.2186C56.3253 77.9474 56.848 76.7275 57.7626 75.5075C59.0693 73.8808 59.0693 73.4742 57.1093 73.4742C52.928 73.4742 55.9333 70.2209 62.4666 67.7809C70.0452 65.0699 70.8292 64.9343 70.8292 66.6965ZM69.5225 79.1674C69.3918 83.9118 67.5625 87.0295 64.0346 88.2495C59.0693 90.1473 57.7626 90.1473 57.7626 88.3851C57.7626 87.7073 59.8533 86.0807 62.5972 84.9962C68.0852 82.5563 67.8239 80.7941 62.3359 82.9629C59.8533 83.9118 58.1546 83.9118 57.3706 83.0985C56.456 82.1496 57.1093 81.3363 59.1999 80.523C60.8986 79.8452 63.2506 78.8963 64.2959 78.4897C67.6932 77.2697 69.5225 77.4052 69.5225 79.1674ZM68.2159 91.0961C68.2159 92.4517 62.8586 95.1628 60.2453 95.1628C57.8933 95.1628 59.0693 92.3161 62.0746 91.0961C65.9945 89.4695 68.2159 89.4695 68.2159 91.0961ZM66.9092 96.5183C66.9092 97.1961 65.6025 97.8738 64.0346 97.7383C61.1599 97.7383 61.1599 97.6027 63.6426 96.5183C65.0799 95.8405 66.3865 95.2983 66.6479 95.2983C66.7785 95.1628 66.9092 95.705 66.9092 96.5183Z" fill="#B58F4F"/>
</svg>
