<svg width="58" height="101" viewBox="0 0 58 101" fill="none" xmlns="http://www.w3.org/2000/svg">
<g clip-path="url(#clip0_30_50)">
<path d="M44.9376 0.885448C44.195 1.06133 42.8271 1.49124 41.9086 1.88208C36.476 4.14892 33.9747 4.81334 30.1836 5.00876C26.373 5.18463 22.5037 4.50067 18.908 3.0155C14.5502 1.21766 13.5926 0.92453 11.4235 0.826824C8.9417 0.690029 7.61287 0.944073 5.77594 1.86254C3.29414 3.09367 1.51584 5.53638 0.675542 8.85848C0.147914 10.9495 0.147914 14.936 0.656 18.004C1.28134 21.6388 2.31705 24.3551 4.42756 28.0094C4.85748 28.7324 5.48281 30.0613 5.79548 30.9407C6.4599 32.758 6.63578 33.0121 7.1634 33.0121C7.37836 33.0121 11.1695 30.9797 15.5664 28.5175L23.5589 24.0229H28.503H33.4471L42.065 28.7324C52.0704 34.2041 51.2105 33.9892 52.1485 31.2143C52.4417 30.2958 53.2233 28.6347 53.8487 27.5209C55.8615 23.9838 56.8776 21.033 57.4639 17.1442C57.8743 14.2911 57.757 10.6954 57.1512 8.5849C55.4315 2.5465 50.8197 -0.345684 44.9376 0.885448ZM50.8001 3.23046C53.9659 4.71563 55.7833 8.48719 55.7833 13.5094C55.7833 18.0627 54.474 22.7722 52.1485 26.6024C51.7382 27.2668 51.1128 28.4784 50.7611 29.2796C50.3898 30.1395 50.0185 30.7452 49.8621 30.7062C49.7449 30.6671 46.3837 28.8497 42.3972 26.6806C38.4302 24.4919 34.8932 22.5573 34.5414 22.3814C33.6034 21.9124 23.4221 21.9124 22.5037 22.3814C22.1519 22.5573 18.7908 24.4528 14.9997 26.5829C11.2281 28.7324 8.06233 30.4717 7.96462 30.4717C7.88645 30.4717 7.43699 29.69 6.96799 28.752C6.51853 27.814 5.67823 26.1725 5.11152 25.0977C4.01718 23.0263 3.25505 20.8767 2.68834 18.2581C2.18026 15.9521 2.1998 10.2655 2.70788 8.78032C3.64589 6.00539 5.01381 4.30526 7.08524 3.34771C7.98416 2.93733 8.57041 2.82008 10.0751 2.76146C12.7523 2.64421 13.1627 2.74191 18.2631 4.87197C25.5913 7.92048 33.7011 7.68598 41.3224 4.22709C42.7685 3.56267 44.879 2.83962 45.817 2.64421C46.0906 2.60512 47.0481 2.58558 47.9666 2.60512C49.315 2.66375 49.8621 2.781 50.8001 3.23046Z" fill="#B58F4F"/>
<path d="M28.3663 27.1105C28.0732 27.4427 28.0341 28.1853 28.0341 33.8133V40.1449L26.119 38.2298C24.9465 37.0573 24.0671 36.3342 23.8131 36.3342C23.2659 36.3342 22.6992 36.9987 22.836 37.4481C22.8946 37.6631 24.2234 39.0701 25.7477 40.5943C27.7605 42.5876 28.679 43.3693 29.0112 43.3693C29.3434 43.3693 30.2618 42.5876 32.2746 40.5943C35.1277 37.7608 35.4795 37.2136 34.8346 36.5687C34.3265 36.0606 33.7794 36.3538 31.9034 38.2298L29.9883 40.1449V33.7743C29.9883 27.8531 29.9687 27.3841 29.6365 27.091C29.1675 26.6611 28.7571 26.6806 28.3663 27.1105Z" fill="#B58F4F"/>
<path d="M46.1102 42.0209C44.625 42.1576 42.6513 42.8025 39.2315 44.2291C35.1668 45.9292 31.1803 46.6132 26.9983 46.281C23.6567 46.0074 21.5071 45.4016 16.4653 43.2911C9.99701 40.5748 4.17357 42.2358 1.65268 47.4925C0.460638 49.9744 0.226137 51.4204 0.343387 55.3874C0.499721 60.0774 1.32048 63.3995 3.23557 67.0538C6.90942 74.0693 7.4175 76.1212 7.71063 85.5794C7.92559 91.9891 8.19917 93.572 9.50847 96.2102C11.5408 100.275 16.1136 101.721 20.3346 99.6495C21.7807 98.946 22.9141 97.7735 23.7349 96.132C24.712 94.1974 25.1028 92.3213 25.3177 88.5107C25.689 81.6711 26.2362 79.1893 27.7409 77.6259C28.6789 76.6489 29.1284 76.5902 29.9882 77.2937C31.4734 78.5639 32.2746 81.3193 32.5287 86.1657C32.7632 90.6994 32.8999 91.8523 33.3103 93.5134C34.0725 96.4837 35.5967 98.6333 37.6877 99.6495C42.0846 101.799 46.6573 100.236 48.6506 95.8779C49.8426 93.2593 50.3116 90.3476 50.3116 85.3645C50.3116 79.0329 51.3474 73.4831 53.1452 70.1414C55.9201 64.9629 56.7018 62.911 57.3467 59.0613C58.656 51.4204 56.4868 45.1475 51.7773 42.8807C50.9956 42.5094 49.9404 42.1576 49.4127 42.099C48.8851 42.0209 48.2402 41.9622 47.9666 41.9231C47.6931 41.9036 46.8723 41.9427 46.1102 42.0209ZM50.4094 44.3659C51.6405 44.8349 53.1452 46.1051 53.9855 47.4144C54.3177 47.942 54.8258 49.0559 55.1385 49.9157C55.6465 51.4009 55.6856 51.6745 55.6856 54.8012C55.6856 58.4359 55.4316 60.0188 54.4154 62.9696C53.6337 65.256 53.3406 65.9009 52.1681 67.8941C49.4909 72.4669 48.6311 76.3948 48.3575 85.2863C48.2011 90.543 48.0448 91.8328 47.4586 93.6893C46.716 95.917 45.7389 97.2263 44.1755 98.0471C43.3157 98.477 42.9444 98.5552 41.4983 98.5552C40.0718 98.5552 39.6614 98.477 38.7234 98.0275C36.0853 96.7182 35.0105 94.1974 34.6587 88.5107C34.3851 83.977 34.1311 81.7102 33.7207 80.2641C32.5873 76.3362 30.3009 74.2452 27.9754 75.0073C27.0765 75.32 25.689 76.8052 25.0442 78.1927C24.1452 80.1077 23.7544 82.2183 23.5199 86.3611C23.3049 90.6212 23.1291 92.0087 22.5624 93.8261C21.5657 97.07 19.6897 98.5356 16.5044 98.5552C15.0192 98.5747 14.7261 98.5161 13.7686 97.9885C12.5179 97.3045 11.404 95.9561 10.8178 94.3928C10.0361 92.2823 9.84068 90.6994 9.6648 85.1886C9.56709 82.2378 9.35214 78.9352 9.17626 77.8604C8.59001 73.9912 7.57384 70.7863 6.245 68.5781C3.64594 64.2398 2.49298 60.3901 2.29756 55.3679C2.19985 53.0229 2.25848 52.1239 2.51252 50.971C3.58732 46.1442 6.83125 43.6233 11.4822 44.0141C13.2605 44.1705 14.433 44.5222 17.4815 45.8315C21.9761 47.7466 25.2396 48.3524 30.0469 48.1961C34.3656 48.0593 37.4141 47.3167 41.7133 45.382C45.348 43.7405 47.9276 43.4279 50.4094 44.3659Z" fill="#B58F4F"/>
</g>
<defs>
<clipPath id="clip0_30_50">
<rect width="57.4454" height="100" fill="white" transform="translate(0.277344 0.606445)"/>
</clipPath>
</defs>
</svg>
