<svg width="70" height="101" viewBox="0 0 70 101" fill="none" xmlns="http://www.w3.org/2000/svg">
<path d="M62.3284 1.17561C61.0213 1.89678 54.2153 9.46903 53.6744 10.7761C53.449 11.3621 53.4039 12.3988 53.5392 13.0749C53.8096 14.2918 52.5476 16.0497 47.4543 21.3683C47.0487 21.819 45.5613 22.4951 44.1189 22.8557C42.6766 23.2163 40.6934 23.9374 39.6567 24.4783C36.9073 25.8756 33.031 25.7854 29.5604 24.298C25.7292 22.5852 23.2952 22.0894 19.2387 22.0894C4.58998 21.9993 -2.17095 33.6732 2.33634 51.2516C3.77867 56.8857 5.13086 60.176 9.77337 69.6414C12.4777 75.1403 12.8383 76.3121 14.9117 85.4169C17.8414 98.1725 19.2387 100.606 23.6108 100.606C27.6222 100.606 29.1547 96.6851 30.5069 83.4787C30.8675 79.6475 31.4084 75.3656 31.6788 73.9684C32.3098 70.7231 33.8423 67.9286 35.0142 67.9286C37.0425 67.9286 38.3496 72.7063 39.5215 84.3802C40.8286 97.4513 42.5414 101.057 47.0036 100.471C50.97 99.9304 52.187 97.6316 55.1167 84.9211C57.3253 75.3656 57.4154 74.96 61.1565 67.4779C66.7005 56.2547 69.0442 48.4571 69.0442 41.2454C69.0442 33.9887 66.3849 28.1743 61.5621 24.884C59.7592 23.6219 56.8746 22.7205 51.9616 21.8641L50.0235 21.5035L52.7279 18.5287C55.297 15.7342 55.5224 15.5989 57.145 15.7792C58.7676 15.9595 58.9479 15.8243 63.0946 11.5424C65.4384 9.10844 67.5118 6.62944 67.7371 5.99841C68.3681 4.42087 67.4216 2.032 65.8891 1.22069C64.3116 0.409378 63.7256 0.409378 62.3284 1.17561ZM65.3483 3.33911C65.6638 3.65462 65.8891 4.28564 65.8891 4.73637C65.8891 5.63783 59.6691 12.8495 58.2267 13.6157C57.0999 14.2468 56.0182 13.7059 55.7027 12.4438C55.4773 11.5424 56.1083 10.6409 59.3536 7.08017C63.2298 2.88838 64.2665 2.25736 65.3483 3.33911ZM27.6673 25.6502C29.335 26.4164 31.5887 27.9038 32.6704 28.9405C34.6536 30.7434 36.727 31.69 37.8538 31.3294C38.8905 30.9237 38.3947 29.8871 36.8622 29.3913C36.0058 29.1208 35.0593 28.625 34.7888 28.2644C34.3832 27.7686 34.6536 27.5883 36.4565 27.3179C37.6284 27.1827 39.837 26.5517 41.2793 25.9657C42.7667 25.3798 44.0288 24.9741 44.164 25.0643C44.2541 25.1995 43.533 26.3263 42.5864 27.6785C41.5948 28.9856 39.5215 31.9604 37.989 34.2591L35.1945 38.4509L33.5268 38.1805C32.6253 38.0002 30.8675 37.5494 29.6054 37.1438C28.2082 36.648 25.9095 36.3776 23.5206 36.3776C17.3005 36.3776 14.2356 38.4058 12.2524 43.6794C11.396 45.933 11.3058 46.8795 11.4861 50.5755C11.7566 55.0828 12.658 58.4633 15.5427 65.4496C17.3907 69.8667 18.2471 73.743 19.2387 81.9012C19.5993 85.1464 20.1401 88.6171 20.4556 89.6988C21.4022 93.3046 24.1516 93.8004 25.3235 90.6003C25.594 89.7889 25.9996 86.6789 26.225 83.7041C27.1715 72.0302 27.9828 68.2892 30.4168 64.5932C31.7689 62.5649 34.248 61.1677 35.7354 61.5282C38.4397 62.2043 41.5498 67.0722 42.4062 71.9851C42.6766 73.4726 43.0822 77.5291 43.3527 80.9997C43.9837 89.0227 44.4795 91.4566 45.8317 92.313C48.4008 93.9807 49.5727 91.3214 50.7897 81.2251C51.6461 73.743 52.818 68.9653 55.0716 63.5565C57.3253 58.1928 58.6775 52.8742 58.6775 49.629C58.6775 46.6992 57.2802 41.7412 56.0182 40.1186C53.449 36.8734 47.0487 35.3859 41.5948 36.7832C40.0173 37.1889 38.62 37.4593 38.5299 37.3692C38.3496 37.1438 43.2175 30.1124 46.012 26.5066L48.0853 23.8924L51.9616 24.0727C60.4353 24.4783 65.4835 29.211 66.8807 38.0903C68.0076 45.4823 65.168 55.9843 58.7225 67.8384C56.1534 72.6612 54.5758 77.5742 52.7729 86.3183C50.8348 95.9189 48.4008 99.8402 45.3359 98.3979C43.4428 97.5415 42.4963 93.7554 41.099 81.4054C40.0624 72.2556 39.3412 69.2357 37.6735 67.2976C36.8171 66.2609 36.141 65.9003 35.0142 65.9003C31.6337 65.9003 30.0111 69.7315 28.9294 80.3236C27.7575 91.8623 26.4053 97.6316 24.6925 98.3979C22.0332 99.6148 19.464 96.5499 18.0668 90.42C14.2807 74.2388 14.0553 73.4726 11.1706 67.9286C7.79016 61.3479 5.44637 55.6688 4.09418 50.5755C2.65185 45.2569 2.65185 37.5494 4.04911 33.7633C5.26608 30.4279 7.24928 27.9038 9.86351 26.3714C13.4693 24.2529 14.8215 23.9374 19.9598 24.1177C24.1516 24.2529 25.0531 24.4332 27.6673 25.6502ZM27.1264 38.6312C28.4786 38.9918 30.6421 39.5327 31.9492 39.8031L34.293 40.344L32.3549 43.9949C28.3885 51.3868 24.6024 61.6635 23.2502 68.6047C21.9881 74.9149 21.8529 86.2733 23.0248 85.5521C23.2051 85.4169 23.5206 82.7125 23.6558 79.5574C23.791 76.4023 24.2418 72.1204 24.6474 70.047C25.4137 66.0355 28.073 57.5618 30.0562 52.8292C32.1746 47.781 36.3213 40.5693 37.2678 40.2088C44.5697 37.3692 50.0686 37.5945 53.6293 40.8398C57.4605 44.2653 57.5507 51.7023 53.9448 60.9423C50.6545 69.3258 50.1136 71.4443 49.2122 78.7461C47.9051 89.0227 47.1839 91.7722 46.3275 89.5185C46.1923 89.1579 45.7415 85.3267 45.381 80.9997C44.5697 71.9851 43.4879 67.0722 41.5047 64.0072C39.5215 60.8972 37.8087 59.8155 34.924 59.8155C28.8392 59.8155 25.5489 66.6215 24.4221 81.8561C23.9263 88.572 23.6558 90.2397 23.0248 90.2397C22.3938 90.2397 21.7628 87.1747 21.0416 80.9997C20.0951 72.7965 19.2838 69.416 16.6695 62.8354C13.6947 55.4434 12.7482 50.1699 13.5595 46.2034C14.3708 42.5525 15.4075 40.9299 17.7513 39.7129C21.312 37.865 23.4755 37.6396 27.1264 38.6312Z" fill="#B58F4F"/>
</svg>
