<svg width="100" height="101" viewBox="0 0 100 101" fill="none" xmlns="http://www.w3.org/2000/svg">
<path d="M17.3083 1.152C16.8528 1.64709 16.8726 1.96394 17.5658 11.628C18.6351 26.322 19.4075 34.481 20.061 37.7287C21.1106 42.8974 24.1603 48.2245 28.4774 52.3832C29.5072 53.3733 30.8934 54.5417 31.5667 54.9576C32.5371 55.5913 32.9331 55.9874 33.3886 56.8587C34.3194 58.5618 35.2699 61.7105 36.1809 65.9485C37.171 70.5824 37.4483 71.6122 38.1612 73.1767C39.2108 75.5531 40.696 76.5828 42.7358 76.4046C45.1518 76.167 46.241 74.0282 46.9737 68.107C47.9044 60.4035 48.0827 59.0965 48.3797 57.8687C48.8154 56.126 49.1719 55.4527 49.6471 55.4527C50.5977 55.4527 51.0532 57.433 52.0235 65.592C52.8553 72.6618 53.4692 74.7609 55.0336 75.9095C56.3209 76.8601 58.7765 76.464 59.9647 75.0976C61.2519 73.6519 61.8658 71.8498 63.1134 65.9485C64.0243 61.7105 64.9749 58.5618 65.9057 56.8587C66.3611 55.9874 66.7572 55.5913 67.7276 54.9576C70.6585 53.0961 74.7775 48.3433 76.7381 44.6005C79.0155 40.2041 79.5898 37.5505 80.5403 26.6389C80.7581 24.1239 80.976 21.5494 81.0354 20.8959C81.3126 17.9056 82.3226 3.36997 82.3226 2.45902C82.3226 1.7263 82.2236 1.35004 81.9661 1.1322C81.2532 0.498497 80.2631 0.874756 80.065 1.84512C80.0056 2.08276 79.7284 5.66716 79.4511 9.80605C78.3817 25.312 77.4708 34.9167 76.7975 37.7485C75.6291 42.5805 72.9952 47.0165 69.0148 50.8187C67.1731 52.5614 65.4106 53.7694 63.7273 54.4031C62.7371 54.7794 62.2222 54.6012 62.2222 53.8684C62.2222 53.512 62.5391 53.2149 63.7075 52.5416C68.4009 49.7493 71.6486 45.2738 73.1933 39.412C73.926 36.6395 74.0646 34.6988 74.6983 17.6284C75.2924 1.25102 75.2924 1.62728 74.8964 1.19161C74.4409 0.676727 73.728 0.676727 73.2131 1.19161C72.8962 1.50846 72.817 1.84512 72.817 2.81548C72.817 5.37011 71.9061 29.4113 71.708 32.0452L71.5892 33.6889L71.1535 32.4412C69.8267 28.6786 66.9354 26.124 62.9946 25.2328C61.8658 24.9952 60.9152 24.9358 59.1923 25.015C56.7565 25.114 55.1129 25.5101 52.4196 26.6389C50.4195 27.4904 48.7362 27.4112 46.1618 26.3616C43.6071 25.3319 41.7852 24.9556 39.3692 24.9556C33.8639 24.9556 29.824 27.6488 28.1407 32.4412L27.7051 33.7087L27.5862 32.0452C27.3882 29.4311 26.4773 5.2711 26.4773 2.81548C26.4773 1.84512 26.398 1.50846 26.0812 1.19161C25.5663 0.676727 24.8534 0.676727 24.3979 1.19161C24.0414 1.58768 24.0414 1.92433 24.3781 11.4497C24.8534 25.5299 25.2494 34.3028 25.5069 36.2435C25.9426 39.8081 27.0912 43.0756 28.9527 46.0461C30.8142 49.0166 32.6361 50.7791 35.5868 52.5416C37.0918 53.413 37.4087 53.8486 36.973 54.3635C36.6166 54.7992 36.2205 54.7398 34.6362 53.9674C32.8341 53.1159 31.3687 51.9871 29.4279 49.987C25.6455 46.0659 23.3087 41.7488 22.3384 36.8772C21.7047 33.7483 20.7145 22.896 19.7441 8.51884C19.5065 5.09286 19.2887 2.08276 19.2292 1.84512C19.0312 0.854958 17.9222 0.458885 17.3083 1.152ZM42.4189 27.629C44.3993 28.0449 46.439 29.0945 47.647 30.2827C49.3303 31.9462 50.9938 32.5799 51.9047 31.8669C52.8157 31.154 52.4592 30.2035 51.1324 29.7678L50.5383 29.5698L51.3898 29.4509C51.8453 29.3717 53.0929 28.9559 54.1623 28.54C56.5585 27.5696 58.3012 27.2528 60.6182 27.3914C66.1037 27.6884 69.3514 31.1738 69.6089 37.0356C69.7079 39.7289 69.2326 41.9072 67.9256 44.4222C66.8166 46.5808 64.4402 49.1156 62.1232 50.6207C61.3113 51.1554 60.4399 51.8881 60.2023 52.2644C59.0339 53.9873 60.2419 56.6211 62.3411 56.9578C62.955 57.0568 63.1134 57.1558 63.0144 57.3934C62.2817 59.3341 61.3905 62.5225 60.8162 65.2553C59.4102 72.1667 58.5784 74.0678 56.9546 74.0678C55.6673 74.0678 55.1723 72.2657 54.3009 64.5622C53.687 59.0569 53.2315 56.7597 52.4196 55.1556C51.7067 53.71 50.8749 53.0763 49.6471 53.0763C47.0925 53.0763 45.9835 55.6705 45.1122 63.6711C44.3993 70.0081 43.825 72.9786 43.1715 73.7114C42.7754 74.147 41.9634 74.1668 41.3694 73.751C40.4188 73.0975 39.4682 70.3448 38.5573 65.6514C38.1216 63.3938 37.1314 59.6708 36.676 58.5618C36.1017 57.1162 36.1017 57.0964 36.9532 56.9578C38.4385 56.7201 39.5474 55.3735 39.5474 53.809C39.5474 52.6208 38.9533 51.7891 37.3691 50.7593C32.3984 47.5116 29.6458 42.7588 29.6458 37.4911C29.6656 32.4016 32.3192 28.6588 36.6364 27.6092C38.0424 27.2726 40.7554 27.2726 42.4189 27.629Z" fill="#B58F4F"/>
<path d="M8.75573 45.8308C6.99323 46.1476 5.48818 46.6229 4.22077 47.2566C2.97316 47.8903 1.21066 49.8311 0.636368 51.2371L0.180891 52.3857L0.121481 72.0702C0.0818748 84.9423 0.141285 92.131 0.279908 92.8637C0.755188 95.4579 2.73552 98.1512 4.9931 99.2998C7.29028 100.468 4.77526 100.409 49.9862 100.409C95.6725 100.409 92.7416 100.488 95.1774 99.1809C97.3558 98.0323 99.2173 95.4381 99.6926 92.9033C99.8114 92.23 99.8906 84.8631 99.8906 72.6049C99.8906 51.8708 99.8906 52.0688 98.8608 50.3261C98.2073 49.2172 96.7023 47.7517 95.7319 47.2368C92.6228 45.6526 87.1175 45.1179 83.5529 46.0288C81.5725 46.5635 78.9189 47.9696 77.4732 49.3162C74.2453 52.2669 72.562 55.5344 71.3738 61.0992C68.6608 73.9119 65.5516 80.9619 61.6108 83.2789C60.8979 83.6749 60.3038 83.8532 59.3334 83.9324C56.66 84.1106 55.4916 83.3581 53.5904 80.2292C52.9765 79.1994 52.224 78.1894 51.9468 77.9914C50.8576 77.1794 49.1149 77.1794 48.0257 77.9914C47.7485 78.1894 46.9959 79.1994 46.382 80.2292C44.5799 83.2195 43.4907 83.972 41.0747 83.972C38.0646 83.9324 35.8071 81.8728 33.4307 76.9418C31.5691 73.0604 30.1235 68.3076 28.5987 61.0992C27.4105 55.5344 25.7272 52.2669 22.4992 49.3162C21.0536 47.9894 18.4197 46.5635 16.4196 46.0288C14.8155 45.5932 10.6965 45.4941 8.75573 45.8308ZM15.2314 48.227C18.0633 48.8211 20.8754 50.6232 22.7369 53.059C24.6776 55.5938 25.4103 57.5346 26.8956 64.3667C28.4996 71.6939 30.678 77.6151 33.1138 81.2589C34.2624 83.0016 36.3814 84.9622 37.827 85.6751C38.8964 86.2098 39.1736 86.2494 41.1738 86.2494C43.1541 86.2494 43.4511 86.19 44.4611 85.6949C45.8671 85.0216 47.0949 83.7145 48.303 81.6352C49.7684 79.0608 50.2041 79.0608 51.6695 81.6352C52.8775 83.7145 54.1053 85.0216 55.5114 85.6949C56.5213 86.19 56.8184 86.2494 58.7987 86.2494C60.7988 86.2494 61.0761 86.2098 62.1257 85.6751C63.6307 84.9423 65.6309 83.0808 66.8785 81.2193C69.3143 77.5953 71.6709 71.08 73.2749 63.5746C74.4829 57.7722 75.3543 55.5146 77.2356 53.059C79.1169 50.6034 81.9092 48.8211 84.8401 48.2072C87.4739 47.6527 92.1673 48.1478 94.4249 49.2172C95.3754 49.6726 96.5042 50.841 96.9993 51.8906C97.4152 52.7818 97.4152 52.8412 97.4152 72.7831V92.7845L96.7617 94.1113C96.0091 95.6361 94.9398 96.6857 93.3753 97.4184L92.2663 97.9333H49.9862H7.70615L6.37933 97.2798C4.85447 96.5273 3.8049 95.4579 3.07218 93.8934L2.55729 92.7845L2.49788 73.199C2.43847 51.7718 2.41867 52.3857 3.58706 50.8608C3.88411 50.4846 4.45841 49.9301 4.83467 49.6726C6.83481 48.2468 11.9441 47.5339 15.2314 48.227Z" fill="#B58F4F"/>
</svg>
