<svg width="24" height="25" viewBox="0 0 24 25" fill="none" xmlns="http://www.w3.org/2000/svg">
<path d="M21.97 19.2848C21.97 19.6448 21.89 20.0148 21.72 20.3748C21.55 20.7348 21.33 21.0748 21.04 21.3948C20.55 21.9348 20.01 22.3248 19.4 22.5748C18.8 22.8248 18.15 22.9548 17.45 22.9548C16.43 22.9548 15.34 22.7148 14.19 22.2248C13.04 21.7348 11.89 21.0748 10.75 20.2448C9.58811 19.3949 8.49169 18.459 7.47 17.4448C6.45877 16.4268 5.5261 15.3337 4.68 14.1748C3.86 13.0348 3.2 11.8948 2.72 10.7648C2.24 9.62483 2 8.53483 2 7.49483C2 6.81483 2.12 6.16483 2.36 5.56483C2.6 4.95483 2.98 4.39483 3.51 3.89483C4.15 3.26483 4.85 2.95483 5.59 2.95483C5.87 2.95483 6.15 3.01483 6.4 3.13483C6.66 3.25483 6.89 3.43483 7.07 3.69483L9.39 6.96483C9.57 7.21483 9.7 7.44483 9.79 7.66483C9.88 7.87483 9.93 8.08483 9.93 8.27483C9.93 8.51483 9.86 8.75483 9.72 8.98483C9.59 9.21483 9.4 9.45483 9.16 9.69483L8.4 10.4848C8.29 10.5948 8.24 10.7248 8.24 10.8848C8.24 10.9648 8.25 11.0348 8.27 11.1148C8.3 11.1948 8.33 11.2548 8.35 11.3148C8.53 11.6448 8.84 12.0748 9.28 12.5948C9.73 13.1148 10.21 13.6448 10.73 14.1748C11.27 14.7048 11.79 15.1948 12.32 15.6448C12.84 16.0848 13.27 16.3848 13.61 16.5648C13.66 16.5848 13.72 16.6148 13.79 16.6448C13.87 16.6748 13.95 16.6848 14.04 16.6848C14.21 16.6848 14.34 16.6248 14.45 16.5148L15.21 15.7648C15.46 15.5148 15.7 15.3248 15.93 15.2048C16.16 15.0648 16.39 14.9948 16.64 14.9948C16.83 14.9948 17.03 15.0348 17.25 15.1248C17.47 15.2148 17.7 15.3448 17.95 15.5148L21.26 17.8648C21.52 18.0448 21.7 18.2548 21.81 18.5048C21.91 18.7548 21.97 19.0048 21.97 19.2848V19.2848Z" stroke="#CBAB58" stroke-width="1.5" stroke-miterlimit="10"/>
</svg>
