<svg width="22" height="20" viewBox="0 0 22 20" fill="none" xmlns="http://www.w3.org/2000/svg">
<path d="M7.27 1.6467V14.6467M14.44 4.2667V17.6467M1 5.4267V15.1567C1 17.0567 2.35 17.8367 3.99 16.8967L6.34 15.5567C6.85 15.2667 7.7 15.2367 8.23 15.5067L13.48 18.1367C14.01 18.3967 14.86 18.3767 15.37 18.0867L19.7 15.6067C20.25 15.2867 20.71 14.5067 20.71 13.8667V4.1367C20.71 2.2367 19.36 1.4567 17.72 2.3967L15.37 3.7367C14.86 4.0267 14.01 4.0567 13.48 3.7867L8.23 1.1667C7.7 0.906704 6.85 0.926704 6.34 1.2167L2.01 3.6967C1.45 4.0167 1 4.7967 1 5.4267V5.4267Z" stroke="#CBAB58" stroke-width="1.5" stroke-linecap="round" stroke-linejoin="round"/>
</svg>
